<?xml version="1.0" standalone="no"?>
<!DOCTYPE svg PUBLIC "-//W3C//DTD SVG 20010904//EN"
 "http://www.w3.org/TR/2001/REC-SVG-20010904/DTD/svg10.dtd">
<svg version="1.0" xmlns="http://www.w3.org/2000/svg"
 width="1200.000000pt" height="1200.000000pt" viewBox="0 0 1200.000000 1200.000000"
 preserveAspectRatio="xMidYMid meet">
<metadata>
Created by potrace 1.14, written by Peter Selinger 2001-2017
</metadata>
<g transform="translate(0.000000,1200.000000) scale(0.100000,-0.100000)"
fill="#000000" stroke="none">
<path d="M0 6000 l0 -6000 6000 0 6000 0 0 6000 0 6000 -6000 0 -6000 0 0
-6000z m5705 2030 c107 -228 195 -418 195 -422 0 -5 -103 -8 -228 -8 -126 0
-231 -3 -235 -6 -3 -4 9 -37 28 -75 19 -38 35 -71 35 -74 0 -3 -67 -5 -150 -5
-82 0 -150 -1 -150 -2 0 -2 165 -356 368 -788 l367 -785 985 -8 c1116 -9 1222
-7 1330 23 263 74 467 280 542 547 30 111 30 278 -1 387 -61 218 -212 398
-414 495 -167 81 -75 75 -1265 78 l-1064 4 -44 93 c-24 51 -44 98 -44 105 0 8
44 11 145 11 80 0 145 2 145 4 0 2 -88 192 -195 421 -107 229 -195 419 -195
421 0 2 682 4 1515 4 1560 0 1610 -1 1810 -41 363 -72 754 -296 995 -570 71
-80 180 -221 180 -232 0 -4 -70 -7 -155 -7 -91 0 -155 -4 -155 -9 0 -6 16 -37
35 -70 19 -32 35 -64 35 -70 0 -8 -69 -11 -221 -11 -173 0 -220 -3 -216 -12 3
-7 24 -55 46 -106 183 -417 192 -931 24 -1351 -19 -48 -37 -92 -40 -98 -4 -10
76 -13 379 -13 212 0 387 -3 391 -6 18 -18 -178 -322 -290 -447 -137 -154
-343 -317 -507 -399 -33 -17 -63 -32 -65 -34 -2 -1 108 -139 245 -306 233
-284 638 -778 836 -1020 l88 -108 -1074 0 -1075 0 -57 68 -57 67 386 3 c213 1
387 5 387 8 0 2 -30 41 -66 84 l-67 80 -241 2 -241 3 -347 425 c-191 234 -348
427 -348 430 0 3 86 4 191 2 105 -2 198 -1 205 2 12 4 11 11 -3 41 l-17 35
-809 2 c-445 2 -810 2 -812 0 -1 -1 97 -214 218 -472 l220 -470 239 0 238 0
65 -135 c35 -74 67 -144 70 -155 6 -20 0 -20 -968 -20 l-974 0 -31 68 c-70
156 -545 1168 -551 1175 -10 10 -1513 9 -1523 -1 -4 -4 -137 -284 -296 -622
l-287 -615 -978 -3 -977 -2 35 70 35 70 390 0 391 0 34 76 c19 42 35 80 35 85
0 5 -105 10 -233 11 l-234 3 169 360 c92 198 183 391 201 428 l32 68 240 2
240 2 152 325 c84 179 202 431 263 561 60 130 110 239 110 243 0 3 -173 6
-385 6 -212 0 -385 3 -385 8 0 7 74 166 552 1187 78 165 167 356 199 425 l59
125 153 3 154 2 123 263 c67 144 156 335 198 425 l76 162 848 -2 849 -3 194
-415z"/>
<path d="M4092 7198 c-11 -24 -57 -122 -102 -218 -45 -96 -110 -236 -145 -310
-34 -74 -133 -285 -219 -468 -86 -184 -154 -338 -151 -343 6 -9 2015 -14 2015
-4 0 2 -14 34 -32 70 l-32 65 -360 2 -360 3 -284 605 c-156 333 -286 613 -289
623 -8 27 -21 20 -41 -25z"/>
</g>
</svg>
